<svg width="73" height="63" viewBox="0 0 73 63" fill="none" xmlns="http://www.w3.org/2000/svg">
<path d="M21.2917 32.5835H38.0208M21.2917 20.4168H51.7083M30.4167 47.7918H18.8583C15.4514 47.7918 13.7478 47.7918 12.4466 47.1287C11.3019 46.5457 10.3713 45.6149 9.78805 44.4703C9.125 43.1691 9.125 41.4655 9.125 38.0585V14.9418C9.125 11.5348 9.125 9.83134 9.78805 8.53006C10.3713 7.38539 11.3019 6.45476 12.4466 5.87155C13.7478 5.2085 15.4514 5.2085 18.8583 5.2085H54.1417C57.5486 5.2085 59.2523 5.2085 60.5535 5.87155C61.6981 6.45476 62.6288 7.38539 63.2119 8.53006C63.875 9.83134 63.875 11.5349 63.875 14.9418V15.8543M42.5833 50.8335L48.7427 49.6016C49.2796 49.4942 49.5481 49.4404 49.7985 49.3422C50.0208 49.2552 50.2322 49.142 50.4278 49.0055C50.6486 48.8515 50.8421 48.6581 51.2296 48.2706L63.875 35.6252C65.5549 33.9453 65.5549 31.2217 63.875 29.5418C62.1951 27.8619 59.4716 27.8619 57.7917 29.5418L45.1462 42.1873C44.7587 42.5748 44.5653 42.7682 44.4114 42.989C44.2748 43.1846 44.1617 43.396 44.0747 43.6184C43.9764 43.8687 43.9226 44.1373 43.8152 44.6741L42.5833 50.8335Z" stroke="#7B66FF" stroke-width="7.08333" stroke-linecap="round" stroke-linejoin="round"/>
</svg>
